<svg width="161" height="75" viewBox="0 0 161 75" fill="none" xmlns="http://www.w3.org/2000/svg">
<path d="M28.3031 13.9854C28.7754 14.1787 29.2958 14.1497 29.7874 14.2173C34.163 14.8745 38.0471 16.6142 41.43 19.4557C44.8708 22.3455 47.2996 25.9409 48.6971 30.2225C49.7572 33.4699 50.0753 36.7946 49.6705 40.187C48.9958 45.928 46.5092 50.7605 42.336 54.7231C41.5746 55.448 40.7554 56.1052 39.8976 56.7044C39.7916 56.7817 39.6759 56.9364 39.5506 56.8784C39.4157 56.8107 39.4928 56.6271 39.4928 56.5015C39.4928 50.0936 39.4735 43.6857 39.4928 37.2682C39.5024 35.0839 38.9049 33.122 37.5363 31.4306C36.2833 29.8842 34.616 28.9467 32.7462 28.3185C30.8283 27.6613 28.8525 27.3423 26.8381 27.2457C24.2166 27.12 21.5951 27.207 18.9832 27.1877C18.6073 27.1877 18.5302 27.0717 18.5398 26.7238C18.5495 23.0801 18.5591 19.4267 18.5398 15.783C18.5398 15.4061 18.6651 15.2611 19.0025 15.1548C20.7469 14.6136 22.5107 14.2173 24.3323 14.0723C24.3997 14.0627 24.4672 14.0627 24.5057 13.995C25.7587 13.9854 27.0309 13.9854 28.3031 13.9854Z" fill="#6B7280"/>
<path d="M18.5301 44.8354C18.5301 40.0319 18.5301 35.2188 18.5205 30.4153C18.5205 30.0867 18.5783 29.9707 18.9446 29.9707C20.7372 29.99 22.5299 29.9514 24.3226 29.9997C26.2502 30.0577 28.1681 30.193 29.9897 30.9565C32.5823 32.0487 34.1629 34.3199 34.1726 37.1421C34.1822 44.5261 34.1726 51.9198 34.1822 59.3038C34.1822 59.6034 34.0666 59.7098 33.816 59.7871C30.8957 60.7729 27.8886 61.1305 24.8141 60.9469C22.7998 60.8309 20.8336 60.425 18.9157 59.7967C18.6169 59.7001 18.5301 59.5454 18.5301 59.2362C18.5398 54.452 18.5301 49.6485 18.5301 44.8354Z" fill="#6B7280"/>
<path d="M13.2293 18.0059C13.2293 18.2475 13.2293 18.4021 13.2293 18.5471C13.2293 31.1695 13.2293 43.7919 13.2293 56.4144C13.2293 56.569 13.3161 56.801 13.1715 56.8783C13.0173 56.9653 12.8823 56.7623 12.757 56.6753C7.57182 52.877 4.28527 47.8319 3.24437 41.4724C2.00107 33.866 4.03468 27.1682 9.21027 21.4466C10.2801 20.2675 11.4848 19.243 12.7763 18.3151C12.9016 18.2185 13.0269 18.1412 13.2293 18.0059Z" fill="#6B7280"/>
<path d="M157.5 38.3897C157.5 40.284 157.462 42.1783 157.51 44.063C157.568 46.2956 156.585 47.958 154.715 49.0211C151.631 50.7705 148.508 50.6835 145.462 48.8471C145.183 48.6828 144.932 48.4509 144.691 48.2286C144.537 48.0836 144.45 48.0643 144.287 48.2189C141.54 50.8285 136.374 50.8961 133.482 48.4992C132.21 47.4361 131.497 46.0926 131.497 44.4013C131.507 40.255 131.507 36.1087 131.487 31.9721C131.487 31.5952 131.574 31.4696 131.96 31.4889C132.634 31.5179 133.309 31.5179 133.984 31.4889C134.369 31.4696 134.494 31.5662 134.494 31.9818C134.475 36.0701 134.475 40.1583 134.485 44.2466C134.485 45.1261 134.658 45.967 135.111 46.7402C135.641 47.6294 136.393 48.2093 137.395 48.4412C138.465 48.6925 139.535 48.6828 140.566 48.2866C142.089 47.697 142.995 46.1893 142.995 44.3046C142.995 40.2163 142.995 36.1281 142.995 32.0398C142.995 31.4212 142.918 31.5082 143.554 31.4986C144.229 31.4986 144.903 31.5179 145.578 31.4889C145.915 31.4792 145.992 31.5952 145.983 31.9045C145.973 36.0507 145.964 40.197 145.983 44.3336C145.992 45.7447 146.436 47.0011 147.631 47.871C150.243 49.7846 154.002 48.1996 154.435 45.0198C154.474 44.7009 154.493 44.3916 154.493 44.0727C154.493 40.023 154.503 35.9734 154.484 31.9335C154.484 31.5565 154.58 31.4696 154.946 31.4792C155.659 31.5082 156.382 31.4986 157.095 31.4792C157.404 31.4696 157.491 31.5565 157.491 31.8755C157.491 34.0598 157.5 36.2247 157.5 38.3897Z" fill="#6B7280"/>
<path d="M55.607 37.2778C55.607 33.2476 55.607 29.2173 55.5974 25.1773C55.5974 24.8197 55.6745 24.6941 56.0504 24.7134C56.725 24.7424 57.3997 24.7424 58.0744 24.7134C58.4792 24.6941 58.6141 24.7811 58.6044 25.2257C58.5755 27.1586 58.6045 29.0916 58.5852 31.0246C58.5852 31.4112 58.6912 31.5079 59.0767 31.5079C60.3971 31.4885 61.7272 31.4885 63.0476 31.5175C64.5029 31.5465 65.9197 31.8075 67.2594 32.4164C69.293 33.3345 70.3146 34.9389 70.3242 37.1522C70.3435 41.1825 70.3242 45.2128 70.3146 49.2527C70.3146 49.8326 70.3146 49.8326 69.7363 49.8326C69.1388 49.8326 68.5508 49.8326 67.9533 49.8326C67.2497 49.8229 67.2979 49.9389 67.2979 49.2044C67.2979 45.2997 67.2979 41.3854 67.2979 37.4808C67.2979 36.9879 67.2883 36.4853 67.1437 36.0021C66.8353 34.9389 66.1317 34.2237 65.1583 33.7405C64.0499 33.1992 62.8452 33.1412 61.6501 33.1122C60.773 33.0833 59.8863 33.1219 58.9996 33.1026C58.6334 33.0929 58.5755 33.2186 58.5755 33.5472C58.5852 38.7952 58.5852 44.0433 58.5852 49.2914C58.5852 49.9099 58.6526 49.8423 58.0262 49.8423C57.3612 49.8423 56.7058 49.8229 56.0407 49.8519C55.6745 49.8713 55.5781 49.765 55.5781 49.3977C55.6167 45.3384 55.607 41.3081 55.607 37.2778Z" fill="#6B7280"/>
<path d="M128.942 40.6702C128.942 41.8204 128.904 42.9608 128.952 44.111C129.039 46.3726 127.979 47.9576 126.128 49.0981C123.372 50.7894 119.295 50.6058 116.702 48.6825C115.237 47.5903 114.466 46.1309 114.476 44.2849C114.476 41.9943 114.514 39.7037 114.466 37.4035C114.418 34.6876 115.69 32.8126 118.129 31.8171C121.02 30.6284 123.911 30.754 126.581 32.513C128.152 33.5472 128.981 35.0549 128.952 36.9879C128.923 38.2153 128.942 39.4428 128.942 40.6702ZM125.964 40.6509C125.964 39.2592 126.003 37.8577 125.945 36.466C125.906 35.3159 125.434 34.3204 124.528 33.5762C123.198 32.484 120.769 32.3584 119.304 33.2862C117.917 34.1657 117.454 35.5285 117.435 37.0845C117.406 39.4621 117.415 41.83 117.435 44.2076C117.444 45.3577 117.705 46.4499 118.514 47.3391C119.43 48.3635 120.615 48.6148 121.916 48.5955C124.229 48.5568 125.858 47.0104 125.945 44.7005C126.003 43.3571 125.964 42.004 125.964 40.6509Z" fill="#6B7280"/>
<path d="M102.862 43.1249C102.862 45.2125 102.853 47.3001 102.872 49.3781C102.872 49.755 102.766 49.8323 102.409 49.8323C100.192 49.813 97.9661 49.8517 95.7493 49.7937C94.294 49.7647 92.829 49.6004 91.4701 48.9915C89.7834 48.2376 88.5112 47.0778 88.2414 45.1545C87.8366 42.226 88.8004 40.1384 91.7014 38.7466C93.4651 37.8961 95.3638 37.6835 97.2914 37.6448C98.0528 37.6352 98.8046 37.6352 99.566 37.6545C99.8069 37.6642 99.884 37.5869 99.8744 37.3549C99.8455 35.7988 99.2672 34.5231 97.648 33.7402C96.53 33.199 95.3156 33.1313 94.1012 33.0927C93.417 33.0733 92.723 33.083 92.0291 33.0927C91.7689 33.1023 91.6725 33.0347 91.6725 32.7544C91.6821 32.0392 91.6628 32.0392 92.3664 31.8362C93.6579 31.4593 94.9783 31.5269 96.2987 31.6332C97.3974 31.7202 98.4865 31.9039 99.5082 32.3581C101.108 33.0733 102.322 34.1365 102.727 35.9341C102.814 36.3111 102.862 36.6977 102.862 37.0843C102.862 39.0849 102.862 41.1049 102.862 43.1249ZM99.8744 43.7724C99.8744 42.4097 99.8744 41.0372 99.8744 39.6745C99.8744 39.5102 99.9322 39.2976 99.6334 39.2976C97.8986 39.2782 96.1541 39.1912 94.4771 39.7228C92.9543 40.1964 91.7496 41.0276 91.3159 42.6803C91.1617 43.2795 91.1617 43.8787 91.2002 44.4876C91.2484 45.3285 91.5375 46.063 92.1351 46.6816C92.8772 47.4548 93.8121 47.8317 94.8337 47.996C96.4144 48.257 98.0239 48.141 99.6142 48.17C99.8937 48.1796 99.884 48.0153 99.884 47.822C99.8744 46.4786 99.8744 45.1255 99.8744 43.7724Z" fill="#6B7280"/>
<path d="M73.0035 41.0567C73.0517 40.0225 72.9361 38.7661 73.071 37.5193C73.4469 34.1269 75.7311 31.585 79.1237 31.1791C81.3115 30.9181 83.3547 31.2854 85.157 32.6192C87.181 34.1076 87.9617 36.8331 86.969 38.998C86.2943 40.4768 85.0414 41.3466 83.5571 41.8975C81.2247 42.7674 78.8152 42.9607 76.3672 42.5064C76.213 42.4774 76.0202 42.3904 76.0202 42.6804C76.0299 43.4149 75.9624 44.1494 76.0684 44.8743C76.2515 46.1018 76.9648 46.9523 78.0442 47.5128C79.1718 48.0927 80.3959 48.1604 81.6199 48.1894C82.7957 48.2184 83.9619 48.2087 85.1378 48.1894C85.4365 48.1894 85.5426 48.2474 85.5426 48.576C85.5329 49.3685 85.5522 49.3878 84.7426 49.5908C83.2776 49.9581 81.7837 49.8808 80.2995 49.8131C79.1911 49.7648 78.0731 49.6488 77.0033 49.2912C76.0492 48.9723 75.1914 48.518 74.4492 47.8221C73.4373 46.8653 73.0228 45.6862 72.9939 44.3331C72.9843 43.2893 73.0035 42.2841 73.0035 41.0567ZM77.8033 40.8924C79.6827 40.8924 81.0223 40.6604 82.15 40.2255C84.9354 39.1333 85.0125 36.3015 83.933 34.5425C83.027 33.0734 81.0898 32.3775 79.249 32.8125C77.437 33.2377 76.1359 34.7841 76.0491 36.7074C76.001 37.9735 76.0299 39.2493 76.0202 40.5154C76.0202 40.7474 76.107 40.815 76.3286 40.8344C76.8491 40.8924 77.3792 40.873 77.8033 40.8924Z" fill="#6B7280"/>
<path d="M109.049 34.9779C109.049 38.061 109.078 41.1345 109.04 44.2176C109.011 46.4405 110.389 47.8613 112.278 48.3445C112.789 48.4798 113.3 48.5861 113.82 48.5958C114.042 48.5958 114.157 48.6634 114.128 48.9147C114.109 49.0694 114.128 49.2144 114.128 49.369C114.109 50.0939 114.254 50.0069 113.502 50.0069C112.076 49.9972 110.678 49.7652 109.348 49.2143C107.179 48.3155 106.042 46.7015 106.033 44.3529C106.013 37.9354 106.023 31.5082 106.023 25.0906C106.023 24.8007 106.11 24.7137 106.399 24.7234C107.141 24.7427 107.893 24.7524 108.635 24.7234C108.991 24.7137 109.069 24.8297 109.069 25.168C109.04 28.4347 109.049 31.7015 109.049 34.9779Z" fill="#6B7280"/>
</svg>
