<svg width="160" height="75" viewBox="0 0 160 75" fill="none" xmlns="http://www.w3.org/2000/svg">
<path d="M150.131 20.2969C152.454 20.2969 154.188 22.0366 154.188 24.3368C154.188 26.6371 152.444 28.3768 150.131 28.3768C147.818 28.3768 146.073 26.6371 146.073 24.3368C146.073 22.0269 147.818 20.2969 150.131 20.2969ZM150.131 20.9541C148.194 20.9541 146.729 22.4038 146.729 24.3368C146.729 26.2698 148.184 27.7196 150.131 27.7196C152.068 27.7196 153.533 26.2698 153.533 24.3368C153.533 22.4038 152.078 20.9541 150.131 20.9541ZM150.969 26.5404L149.524 24.6751V26.5404H148.888V22.1332H149.687C150.044 22.1332 151.393 22.1429 151.393 23.3897C151.393 24.0662 150.921 24.5495 150.246 24.6171L151.779 26.5308L150.969 26.5404ZM149.524 24.1145H149.784C150.179 24.1145 150.757 24.0565 150.757 23.4187C150.757 22.7228 150.16 22.7034 149.765 22.7034H149.524V24.1145Z" fill="#6B7280"/>
<path d="M3.8457 20.2969H7.59488L10.8332 34.2627C10.8332 34.2627 14.1198 47.494 14.1198 51.7756H14.6017C14.6017 51.7756 16.1341 43.4831 17.8786 38.612L23.4783 20.2969H27.5262L32.7789 37.4038C32.7789 37.4038 36.0462 47.494 36.451 51.7659H37.01C37.01 51.7659 36.663 48.8181 39.6122 37.0656L43.5927 20.2969H47.2455L38.9279 56.0475H34.986L29.5309 38.177C29.5309 38.177 26.3215 28.4541 25.7143 24.3755H25.3095C25.3095 24.3755 23.6325 31.7885 22.6976 34.2724C22.6976 34.2724 19.9411 43.2898 19.7387 43.8987C19.5363 44.4979 16.0859 56.0572 16.0859 56.0572H12.2982L3.8457 20.2969Z" fill="#6B7280"/>
<path d="M79.3882 29.237C79.0413 28.9083 71.4658 20.2969 65.4517 20.2969C59.428 20.2969 54.8307 24.8104 55.0234 30.2808C55.2162 35.7511 59.2159 38.1577 59.2159 38.1577C59.2159 38.1577 54.0211 40.8349 55.2933 48.3252C56.5655 55.8059 63.0808 56.6757 67.7745 55.6803C72.4778 54.6751 76.6414 49.7266 78.9738 47.6004C81.3158 45.4644 86.5203 38.177 86.5203 38.177C85.9999 37.0366 79.7256 29.5462 79.3882 29.237ZM76.1306 46.1603C75.7258 46.4889 71.8321 50.3645 69.9623 51.302C68.0829 52.2395 67.4757 52.6455 66.4733 52.8388C65.4614 53.0321 63.0808 53.409 60.5942 51.8723C60.5942 51.8723 57.9341 50.0939 58.1943 45.706C58.4545 41.3181 63.5916 38.583 64.3048 38.177C64.3048 38.177 60.893 36.0024 60.1508 35.0746C59.7364 34.543 59.1099 33.8955 58.6762 32.7453C57.5486 29.7589 58.6088 26.3665 61.2399 24.5398C61.558 24.3175 62.435 23.9116 62.57 23.8536C67.6684 21.65 73.6151 27.8935 73.9813 28.2608C78.2413 32.5714 79.9183 34.7073 80.7954 35.7801C81.6628 36.8529 82.6362 38.0804 82.6362 38.0804L82.6941 38.177L80.2171 41.4148C80.2171 41.4148 76.5258 45.822 76.121 46.1603H76.1306Z" fill="#6B7280"/>
<path d="M94.4238 20.2969H98.0959V52.6261H115.483V56.0572H94.4238V20.2969Z" fill="#6B7280"/>
<path d="M124.966 20.2969H128.638V52.6261H146.015V56.0572H124.966V20.2969Z" fill="#6B7280"/>
</svg>
