<svg width="161" height="75" viewBox="0 0 161 75" fill="none" xmlns="http://www.w3.org/2000/svg">
<path d="M156.534 41.4044C155.465 41.4044 154.395 41.3947 153.325 41.3947C152.92 41.3947 152.515 41.3851 152.111 41.3947C151.85 41.4044 151.783 41.3077 151.802 41.0661C151.812 40.6892 151.802 40.3026 151.802 39.8483C151.571 39.9643 151.397 40.032 151.243 40.1286C149.238 41.2111 147.07 41.5204 144.824 41.3464C142.926 41.2014 141.181 40.6505 139.6 39.568C137.856 38.3793 136.613 36.7942 135.919 34.8032C134.887 31.8651 135.08 28.9849 136.584 26.2497C137.962 23.7369 140.111 22.1615 142.858 21.4656C145.393 20.818 147.918 20.934 150.347 21.9488C153.142 23.1183 155.012 25.1769 155.975 28.0571C156.342 29.1492 156.486 30.28 156.486 31.4205C156.486 34.5326 156.486 37.6447 156.486 40.7568C156.486 40.9018 156.515 41.0371 156.534 41.1724V41.4044ZM139.976 31.3142C139.996 31.5751 140.005 31.9037 140.053 32.2227C140.362 34.2233 141.306 35.8084 143.138 36.7555C144.342 37.3741 145.643 37.5094 146.974 37.2968C148.4 37.0648 149.576 36.4076 150.472 35.2575C151.494 33.9334 151.889 32.416 151.773 30.7536C151.658 29.2169 151.118 27.8541 150.029 26.7523C149.017 25.7182 147.754 25.2156 146.318 25.1286C144.631 25.032 143.109 25.4572 141.865 26.646C140.555 27.8831 140.025 29.4682 139.976 31.3142Z" fill="#6B7280"/>
<path d="M110.427 15.7637C110.543 15.7733 110.668 15.812 110.784 15.812C112.104 15.812 113.434 15.812 114.754 15.812C115.044 15.812 115.188 15.9666 115.188 16.2662C115.188 17.7643 115.188 19.2624 115.188 20.7701C115.188 21.0407 115.275 21.1084 115.525 21.1084C117.039 21.0987 118.552 21.1084 120.075 21.0987C120.335 21.0987 120.402 21.176 120.402 21.4273C120.393 22.5388 120.393 23.6503 120.402 24.7617C120.402 25.0227 120.325 25.1 120.075 25.1C118.6 25.0903 117.125 25.1 115.651 25.1C115.352 25.1 115.207 25.2547 115.207 25.5543C115.207 30.7153 115.207 35.8668 115.207 41.0278C115.207 41.3081 115.14 41.4048 114.851 41.3951C113.473 41.3855 112.104 41.3855 110.735 41.3951C110.446 41.3951 110.379 41.3081 110.379 41.0278C110.388 32.716 110.379 24.3945 110.379 16.0826C110.379 15.9763 110.369 15.8797 110.369 15.7733C110.398 15.7733 110.417 15.7733 110.427 15.7637Z" fill="#6B7280"/>
<path d="M61.1094 59.2273V51.5146H66.8343V52.8194C66.7187 52.8194 66.6127 52.8291 66.5066 52.8291C65.2826 52.8291 64.0586 52.8291 62.8346 52.8291C62.6033 52.8291 62.5262 52.8871 62.5358 53.1287C62.5454 53.6119 62.5358 54.0855 62.5358 54.5978H66.8343V55.9219C66.7283 55.9219 66.6127 55.9315 66.5066 55.9315C65.2826 55.9315 64.0586 55.9412 62.8346 55.9315C62.584 55.9315 62.5165 56.0089 62.5262 56.2505C62.5454 56.7724 62.5262 57.304 62.5262 57.8452H66.8632V59.2079H61.1094V59.2273Z" fill="#6B7280"/>
<path d="M47.6831 59.2274C47.6734 59.1404 47.6445 59.0631 47.6445 58.9761C47.6445 56.5599 47.6445 54.1533 47.6445 51.737C47.6445 51.6694 47.6445 51.6114 47.6542 51.5244H49.0613V54.5882H52.7334V51.5244H54.1309C54.1309 51.6211 54.1502 51.6984 54.1502 51.795C54.1502 54.1823 54.1502 56.5599 54.1502 58.9568C54.1502 59.0534 54.1309 59.1404 54.1116 59.237H52.7623C52.7623 58.2416 52.7527 57.2461 52.7527 56.2506C52.7527 56.0283 52.6852 55.9606 52.4635 55.9606C51.413 55.9703 50.3624 55.9606 49.3119 55.9606C49.2444 55.9606 49.1673 55.9703 49.0613 55.98C49.0613 56.2796 49.0613 56.5695 49.0613 56.8595C49.0517 57.652 49.0517 58.4348 49.0324 59.2274H47.6831Z" fill="#6B7280"/>
<path d="M106.6 59.2274C106.591 59.1404 106.581 59.0534 106.581 58.9761C106.581 56.5695 106.581 54.1726 106.581 51.766C106.581 51.6984 106.591 51.6211 106.591 51.5244H107.988V54.5882H111.66V51.5244H113.077C113.077 51.6597 113.077 51.766 113.077 51.882C113.077 54.2306 113.077 56.5985 113.077 58.9471C113.077 59.0437 113.077 59.1404 113.087 59.2274H111.68C111.68 58.2416 111.67 57.2654 111.67 56.2892C111.67 56.0379 111.622 55.9413 111.342 55.951C110.33 55.9606 109.309 55.951 108.297 55.9606C108.2 55.9606 108.113 55.9703 107.988 55.9703C107.988 56.0863 107.988 56.1926 107.988 56.2989C107.988 57.1687 107.988 58.0386 107.988 58.8988C107.988 59.0147 107.969 59.1211 107.95 59.2274H106.6Z" fill="#6B7280"/>
<path d="M72.3955 59.227C72.569 58.7921 72.7232 58.3475 72.9063 57.9222C73.7063 56.0376 74.5159 54.1529 75.3255 52.2586C75.4797 51.901 75.711 51.64 76.0965 51.5337C76.6459 51.3887 77.1374 51.6593 77.388 52.2296C77.9373 53.5053 78.4867 54.7908 79.0361 56.0762C79.4409 57.033 79.8649 57.9995 80.2697 58.9564C80.3083 59.0434 80.3276 59.1303 80.3565 59.227H78.8337C78.6409 58.7921 78.4482 58.3475 78.265 57.9029C78.1976 57.7482 78.1205 57.6999 77.947 57.6999C76.8964 57.6999 75.8459 57.6999 74.7954 57.6999C74.6315 57.6999 74.5448 57.7386 74.4773 57.8932C74.3038 58.3378 74.1111 58.7727 73.9183 59.2173L72.3955 59.227ZM77.6 56.3758C77.1952 55.419 76.7904 54.4912 76.3664 53.4957C75.9326 54.5008 75.5375 55.4287 75.1327 56.3758H77.6Z" fill="#6B7280"/>
<path d="M97.3958 59.2265C97.3862 59.1105 97.3765 58.9849 97.3765 58.8592C97.3765 56.9746 97.3765 55.0899 97.3765 53.2052C97.3765 52.9636 97.2513 52.8476 97.0007 52.8476C96.3356 52.8476 95.6706 52.8476 94.9863 52.8476V51.5332H101.184V52.8573H98.7933V53.2246C98.7933 55.1092 98.7933 56.9939 98.7933 58.8786C98.7933 58.9945 98.7644 59.1202 98.7548 59.2362L97.3958 59.2265Z" fill="#6B7280"/>
<path d="M85.7725 59.2274V51.5244H87.1989V57.8743H91.0733V59.237L85.7725 59.2274Z" fill="#6B7280"/>
<path d="M36.0408 41.3758C35.8866 41.3758 35.7902 41.3855 35.7035 41.3855C33.747 41.3855 31.7905 41.3855 29.8339 41.3758C29.6797 41.3758 29.4966 41.3082 29.3713 41.2212C26.9715 39.2785 24.2536 38.1477 21.179 37.9254C17.3624 37.6452 13.9602 38.776 10.9724 41.1439C10.77 41.3082 10.5676 41.3855 10.3074 41.3855C8.428 41.3758 6.54859 41.3855 4.65955 41.3855C4.54389 41.3855 4.43788 41.3855 4.24512 41.3855C6.86665 37.7225 10.2303 35.2289 14.4517 33.9338C18.6732 32.6387 22.8657 32.8127 27.01 34.3397C27.0197 34.3204 27.0389 34.3011 27.0486 34.2818C24.7547 29.8552 22.4513 25.4287 20.1189 20.9248C19.8972 21.3597 19.7044 21.698 19.5213 22.0459C18.3262 24.3462 17.1407 26.6464 15.9456 28.9467C15.8782 29.0627 15.7432 29.1883 15.6179 29.2077C13.5361 29.6329 11.5411 30.2998 9.63275 31.247C9.60383 31.2566 9.56528 31.2566 9.45926 31.2856C9.59419 31.0053 9.70021 30.7734 9.81587 30.5511C10.9339 28.3861 12.0615 26.2308 13.1892 24.0562C14.1722 22.1522 15.136 20.2482 16.1384 18.3636C17.0443 16.6722 18.4804 15.8314 20.3984 15.9377C22.085 16.0343 23.3283 16.9138 24.109 18.4216C26.133 22.3165 28.1569 26.2115 30.1713 30.1065C31.8386 33.3249 33.506 36.5433 35.1734 39.7618C35.4625 40.274 35.7227 40.7959 36.0408 41.3758Z" fill="#6B7280"/>
<path d="M80.8091 35.3544C80.5585 35.8376 80.3464 36.3015 80.0862 36.7268C79.0068 38.4375 77.5321 39.6939 75.672 40.4671C72.4626 41.8105 69.2242 41.7719 66.0726 40.3028C63.345 39.0367 61.7259 36.8138 61.0512 33.8949C60.5693 31.8073 60.6079 29.71 61.3211 27.6804C62.5644 24.143 65.0799 22.0264 68.7327 21.3112C70.9976 20.8569 73.2336 21.0309 75.3636 21.9781C78.3996 23.3118 80.144 25.6991 80.838 28.9175C81.1078 30.1546 81.0789 31.4111 81.0596 32.6578C81.0596 32.7255 80.944 32.8221 80.8669 32.8511C80.7898 32.8898 80.6838 32.8608 80.5874 32.8608C75.7202 32.8608 70.8434 32.8608 65.9762 32.8608C65.8895 32.8608 65.8027 32.8608 65.7256 32.8608C65.5521 32.8608 65.4847 32.9284 65.504 33.1024C65.7835 35.219 66.9111 36.9684 69.1471 37.587C70.8627 38.0702 72.5493 37.9639 74.1781 37.181C74.9781 36.8041 75.6335 36.2532 76.1539 35.538C76.231 35.4317 76.3852 35.3157 76.5105 35.3157C77.8888 35.306 79.2573 35.306 80.6356 35.306C80.6645 35.306 80.6934 35.3157 80.8091 35.3544ZM70.959 29.7004C72.5975 29.7004 74.2263 29.7004 75.8744 29.7004C76.578 29.7004 76.5394 29.7487 76.4141 29.0818C76.1346 27.5837 75.4696 26.308 74.1781 25.4188C73.0216 24.6263 71.7301 24.4233 70.3615 24.5393C69.5615 24.6069 68.7905 24.8292 68.0966 25.2545C66.5545 26.1823 65.8027 27.6127 65.504 29.3331C65.4461 29.6714 65.4654 29.6907 65.8316 29.6907C67.5376 29.7004 69.2531 29.7004 70.959 29.7004Z" fill="#6B7280"/>
<path d="M105.733 35.818C105.733 37.5577 105.733 39.2877 105.733 41.0274C105.733 41.3077 105.666 41.3947 105.377 41.3947C104.056 41.385 102.746 41.3947 101.425 41.385C101.059 41.385 101.049 41.385 101.049 41.0081C101.049 37.7896 101.049 34.5615 101.049 31.3334C101.049 29.7484 100.616 28.2987 99.5747 27.0712C98.5916 25.9017 97.3194 25.2929 95.8159 25.1382C94.5919 25.0222 93.416 25.1865 92.3173 25.7761C90.8138 26.5783 89.8982 27.8444 89.4934 29.4778C89.3295 30.1253 89.2717 30.8019 89.2621 31.4591C89.2428 34.6389 89.2524 37.8186 89.2524 40.9887C89.2524 41.3753 89.2524 41.385 88.8765 41.385C87.5369 41.385 86.2068 41.385 84.8671 41.385C84.6166 41.385 84.5491 41.3173 84.5491 41.0661C84.5587 37.7703 84.5009 34.4649 84.5684 31.1691C84.6455 27.3805 86.2936 24.4327 89.5801 22.49C90.9391 21.6782 92.4522 21.2819 94.0232 21.1466C95.9797 20.9823 97.888 21.1949 99.7096 21.9778C102.302 23.0989 104.095 24.9836 105.097 27.6414C105.56 28.8592 105.762 30.1253 105.743 31.4398C105.714 32.8992 105.733 34.3586 105.733 35.818Z" fill="#6B7280"/>
<path d="M57.2833 34.0985C57.2062 34.3788 57.1387 34.6107 57.0616 34.8427C56.0689 37.5199 54.2474 39.4142 51.6258 40.5353C49.9392 41.2602 48.1851 41.4728 46.3539 41.3569C44.6865 41.2409 43.1155 40.835 41.6505 40.0231C39.4145 38.7763 37.8821 36.9207 37.1592 34.4561C36.2725 31.4503 36.5328 28.5315 38.1616 25.8253C39.4531 23.6797 41.3614 22.2879 43.742 21.592C46.2189 20.8672 48.7248 20.8478 51.1728 21.766C54.151 22.8678 56.1653 24.9361 57.1869 27.9612C57.2062 28.0289 57.2159 28.0869 57.2351 28.1545C57.3122 28.3672 57.2159 28.4348 57.0231 28.4252C56.6665 28.4155 56.3099 28.4058 55.9533 28.4058C54.9606 28.4058 53.9582 28.4058 52.9655 28.4155C52.7438 28.4155 52.6089 28.3478 52.5029 28.1352C51.568 26.3472 50.0838 25.3807 48.0983 25.1487C46.6719 24.9844 45.3226 25.1874 44.0986 25.9799C42.942 26.7145 42.1999 27.7679 41.8047 29.0631C41.159 31.257 41.3614 33.3446 42.7203 35.2196C43.6263 36.4761 44.9082 37.1526 46.4406 37.3266C48.0309 37.5102 49.5344 37.2589 50.8741 36.3118C51.5969 35.7995 52.1366 35.123 52.5125 34.3305C52.6089 34.1372 52.7246 34.0502 52.9462 34.0598C54.2955 34.0695 55.6545 34.0598 57.0135 34.0598C57.0809 34.0598 57.158 34.0695 57.2833 34.0985Z" fill="#6B7280"/>
<path d="M122.407 35.8086C122.407 34.1172 122.32 32.4065 122.417 30.7248C122.658 26.8202 124.527 23.94 128.036 22.1714C129.462 21.4465 131.014 21.1565 132.614 21.1082C132.864 21.0985 132.941 21.1759 132.932 21.4272C132.922 22.558 132.922 23.6888 132.932 24.8196C132.932 25.0418 132.864 25.1192 132.652 25.1192C131.351 25.1868 130.175 25.5831 129.182 26.4336C127.939 27.5064 127.303 28.8982 127.12 30.5219C127.081 30.8118 127.081 31.1018 127.081 31.4014C127.081 34.5908 127.081 37.7996 127.081 40.989C127.081 41.2596 126.937 41.3949 126.657 41.3949C125.356 41.3949 124.065 41.3949 122.764 41.3949C122.397 41.3949 122.397 41.3949 122.397 41.018C122.397 39.2783 122.397 37.5483 122.397 35.8086C122.397 35.7989 122.397 35.7989 122.407 35.8086Z" fill="#6B7280"/>
</svg>
