<svg width="161" height="75" viewBox="0 0 161 75" fill="none" xmlns="http://www.w3.org/2000/svg">
<path d="M12.5216 42.3137L14.7865 42.5746C14.4396 43.7151 13.6492 44.7589 12.5216 45.7254C11.3843 46.7789 9.99645 47.2138 8.33872 47.2138C7.37492 47.2138 6.42076 47.0398 5.63045 46.5179C4.76303 46.083 4.1462 45.3775 3.71249 44.5076C3.27878 43.6281 3.01855 42.5843 3.01855 41.4438C3.01855 39.9554 3.36552 38.554 4.06909 37.1623C4.76303 35.7608 5.64008 34.717 6.77737 34.0115C7.8279 33.3156 9.04229 32.958 10.2663 32.958C11.924 32.958 13.1481 33.4799 14.189 34.5334C15.1528 35.4999 15.5865 36.8916 15.5865 38.641C15.5865 39.3369 15.4997 39.9554 15.413 40.6513H5.37022V41.4342C5.37022 42.6616 5.63045 43.6184 6.23764 44.324C6.84483 45.0199 7.5484 45.3775 8.32908 45.3775C9.1965 45.3775 9.90007 45.1165 10.6807 44.5946C11.4711 44.063 12.0879 43.2705 12.5216 42.3137ZM5.80393 38.902H13.389V38.38C13.389 37.2396 13.1288 36.3697 12.512 35.6642C12.0011 35.0553 11.2108 34.7943 10.3434 34.7943C9.29288 34.7943 8.42546 35.1423 7.63515 35.8478C6.76773 36.4471 6.1509 37.5005 5.80393 38.902Z" fill="#6B7280"/>
<path d="M30.0527 40.3033L32.5778 40.5643C31.7972 42.7486 30.6599 44.4109 29.0889 45.5514C27.6047 46.6919 25.9469 47.2138 24.1157 47.2138C21.8508 47.2138 20.0196 46.5179 18.7088 45.1165C17.398 43.802 16.7041 41.7917 16.7041 39.1725C16.7041 35.7608 17.6679 32.958 19.7593 30.7737C21.5038 28.7634 23.7687 27.7969 26.477 27.7969C28.4817 27.7969 30.0527 28.3188 31.2767 29.3723C32.5007 30.5127 33.1947 31.9045 33.4549 33.7505L31.1032 33.9245C30.843 32.61 30.3226 31.5662 29.5322 30.8607C28.7516 30.2518 27.7878 29.8942 26.5638 29.8942C24.2988 29.8942 22.3809 30.9476 20.9834 32.958C19.7593 34.7073 19.1521 36.8046 19.1521 39.2595C19.1521 41.1828 19.5859 42.5842 20.5497 43.6281C21.5135 44.6815 22.7278 45.1165 24.2988 45.1165C25.5229 45.1165 26.7372 44.7685 27.7878 43.889C28.8287 43.0095 29.619 41.8787 30.0527 40.3033Z" fill="#6B7280"/>
<path d="M32.8389 46.9525L36.7615 28.1445H39.0264L35.1038 46.9525H32.8389ZM37.7253 46.9525L40.5203 33.3056H42.872L39.9902 46.9525H37.7253ZM41.0408 30.7637L41.5612 28.1445H43.9129L43.3925 30.7637H41.0408ZM42.525 46.9525L45.4068 33.3056H47.4982L47.0645 35.6639C47.9416 34.7844 48.809 34.0885 49.5897 33.6536C50.3703 33.2186 51.2474 32.9577 52.0281 32.9577C53.1654 32.9577 54.0328 33.3056 54.64 33.9242C55.2472 34.5331 55.6038 35.3256 55.6038 36.3694C55.6038 36.8913 55.4303 37.6838 55.2568 38.7276L53.4256 46.9525H51.0739L52.9919 38.2927C53.1654 37.4229 53.2521 36.8043 53.2521 36.4564C53.2521 36.0215 53.0786 35.5865 52.8184 35.3159C52.4714 35.055 52.0377 34.881 51.4209 34.881C50.1969 34.881 49.156 35.3159 48.1922 36.1954C47.2284 37.0653 46.5344 38.5537 46.1007 40.5737L44.8767 46.9622H42.525V46.9525ZM55.9604 46.9525L58.7554 33.3056H61.107L58.2253 46.9525H55.9604ZM59.2758 30.7637L59.7963 28.1445H62.148L61.6275 30.7637H59.2758Z" fill="#6B7280"/>
<path d="M70.0892 41.9656L72.3541 42.2266C71.7469 43.889 70.9566 45.2034 69.9157 45.9863C68.7784 46.8561 67.5641 47.2137 66.1666 47.2137C64.769 47.2137 63.545 46.7788 62.5909 45.8123C61.7234 44.8458 61.1934 43.541 61.1934 41.7917C61.1934 40.3033 61.5403 38.8149 62.1572 37.4134C62.6776 35.925 63.5547 34.8812 64.6823 34.0887C65.7328 33.3928 67.034 32.9482 68.4315 32.9482C69.9157 32.9482 71.053 33.3832 71.9204 34.2627C72.7011 35.0455 73.1444 36.099 73.1444 37.5004L70.8795 37.7614C70.8795 36.8046 70.6193 36.186 70.1856 35.6641C69.6651 35.1422 69.0483 34.8812 68.1809 34.8812C67.2171 34.8812 66.4364 35.2292 65.7425 35.7607C65.0485 36.3696 64.5185 37.2491 64.1715 38.4766C63.7378 39.704 63.5643 40.8348 63.5643 41.9753C63.5643 43.1158 63.8245 43.9856 64.345 44.5945C64.8654 45.2034 65.4823 45.4643 66.2629 45.4643C67.0436 45.4643 67.7472 45.2034 68.4411 44.5945C69.1254 44.0629 69.6555 43.0964 70.0892 41.9656Z" fill="#6B7280"/>
<path d="M81.8666 45.1936C81.0859 45.8895 80.2956 46.4211 79.5149 46.769C78.821 47.117 78.0306 47.2039 77.1632 47.2039C75.9392 47.2039 74.8983 46.856 74.108 46.1505C73.4141 45.3676 72.9707 44.4011 72.9707 43.2606C72.9707 42.5648 73.1442 41.8592 73.4912 41.2503C73.8381 40.6414 74.3682 40.1968 74.8887 39.8489C75.4959 39.501 76.1994 39.24 76.9801 39.066C77.5006 38.9791 78.4644 38.8921 79.9486 38.8051C81.4328 38.8051 82.4737 38.6311 83.0906 38.3702C83.2641 37.7613 83.3508 37.2297 83.3508 36.7948C83.3508 36.2729 83.1773 35.8283 82.7436 35.5673C82.2232 35.1324 81.4328 34.8715 80.3919 34.8715C79.4281 34.8715 78.6475 35.1324 78.0403 35.5673C77.3463 36.0023 76.903 36.6208 76.6428 37.4037L74.2911 37.1427C74.8116 35.8283 75.6019 34.7845 76.556 34.0789C77.6066 33.2961 78.9077 32.9385 80.4787 32.9385C82.2232 32.9385 83.5339 33.3734 84.4881 34.1659C85.2688 34.7748 85.6254 35.5673 85.6254 36.5242C85.6254 37.22 85.5386 38.0996 85.2784 39.0564L84.5845 42.4681C84.3242 43.5216 84.1508 44.3914 84.1508 45.097C84.1508 45.5319 84.3242 46.1505 84.4977 46.9333H82.1461C82.04 46.5081 81.8666 45.8992 81.8666 45.1936ZM82.734 40.0325C82.387 40.1195 82.04 40.2935 81.6834 40.2935C81.3365 40.3805 80.6329 40.4675 79.8522 40.5545C78.4547 40.6414 77.5006 40.8154 76.9705 40.9894C76.3633 41.1633 75.9199 41.5113 75.6597 41.8592C75.3995 42.2941 75.226 42.7387 75.226 43.1737C75.226 43.8695 75.4862 44.4011 75.9199 44.836C76.3536 45.2709 77.0572 45.4449 77.8379 45.4449C78.6186 45.4449 79.3221 45.2709 80.0161 44.836C80.7967 44.4011 81.3268 43.8695 81.7605 43.1737C82.2135 42.4005 82.4737 41.347 82.734 40.0325Z" fill="#6B7280"/>
<path d="M86.0498 46.9525L89.9725 28.1445H92.2374L88.3147 46.9525H86.0498ZM94.5987 46.9525L93.3747 28.1445H95.8998L96.3335 37.4132C96.4203 37.8481 96.4203 39.0756 96.507 41.0859V43.4441C97.5575 41.3469 98.3382 39.8584 98.7719 38.9886L104.526 28.1445H107.051L107.658 39.1626C107.745 40.39 107.745 41.8784 107.832 43.7148C108.005 43.2798 108.265 42.5743 108.612 41.7045C109.306 40.39 109.75 39.3462 110.01 38.7276L115.33 28.1445H117.951L108.352 46.9525H105.653L105.133 35.5769C105.046 34.6104 104.96 33.3926 104.873 31.9042C104.352 33.1316 103.909 34.0015 103.562 34.707L97.1046 46.9525H94.5987Z" fill="#6B7280"/>
<path d="M113.788 41.7918C113.788 39.0759 114.569 36.8916 116.14 35.1423C117.364 33.7409 119.108 32.958 121.2 32.958C122.771 32.958 124.168 33.4799 125.122 34.5334C126.086 35.5869 126.607 36.9786 126.607 38.728C126.607 40.3034 126.346 41.7048 125.652 43.1062C125.045 44.4206 124.168 45.4645 123.031 46.17C121.807 46.8659 120.592 47.2235 119.282 47.2235C118.231 47.2235 117.277 47.0495 116.4 46.6146C115.533 46.0927 114.916 45.4741 114.482 44.6913C113.962 43.8021 113.788 42.8356 113.788 41.7918ZM116.053 41.5212C116.053 42.8356 116.313 43.7924 116.92 44.498C117.614 45.1068 118.405 45.4645 119.272 45.4645C119.793 45.4645 120.323 45.3775 120.756 45.2035C121.277 44.9425 121.72 44.6816 122.154 44.237C122.588 43.8021 122.935 43.3672 123.204 42.8356C123.551 42.3137 123.812 41.6951 123.985 41.0862C124.245 40.3034 124.332 39.4239 124.332 38.641C124.332 37.4135 124.072 36.4567 123.368 35.7512C122.761 35.1423 121.971 34.7847 121.103 34.7847C120.323 34.7847 119.706 34.9587 119.099 35.3066C118.491 35.6545 117.961 36.0895 117.441 36.795C116.92 37.4909 116.573 38.2834 116.39 39.1532C116.14 40.0327 116.053 40.8253 116.053 41.5212Z" fill="#6B7280"/>
<path d="M126.78 46.953L129.575 33.306H131.667L131.06 36.1089C131.753 35.0554 132.457 34.2725 133.151 33.7506C133.758 33.2287 134.462 32.9678 135.156 32.9678C135.676 32.9678 136.206 33.1417 136.9 33.5767L135.936 35.674C135.503 35.413 135.069 35.239 134.626 35.239C133.845 35.239 132.968 35.674 132.1 36.5535C131.233 37.5103 130.616 39.0857 130.096 41.4536L128.958 46.9626L126.78 46.953Z" fill="#6B7280"/>
<path d="M134.635 46.9525L138.471 28.1445H140.822L138.384 39.7811L145.188 33.3056H148.244L142.49 38.3797L145.979 46.9525H143.454L140.745 39.9551L137.863 42.4003L136.9 46.9525H134.635Z" fill="#6B7280"/>
<path d="M146.152 42.3135L148.504 42.1395C148.504 42.8354 148.591 43.367 148.764 43.8889C148.938 44.3238 149.371 44.6717 149.902 45.0293C150.509 45.2903 151.126 45.4642 151.819 45.4642C152.87 45.4642 153.651 45.2903 154.171 44.8554C154.692 44.4204 154.952 43.9855 154.952 43.367C154.952 43.019 154.778 42.5841 154.518 42.2265C154.171 41.8785 153.381 41.4436 152.166 40.9121C150.942 40.3902 150.162 40.0325 149.815 39.8586C149.208 39.5106 148.764 39.0757 148.504 38.5441C148.244 38.1092 148.07 37.5873 148.07 36.9688C148.07 35.8283 148.504 34.9584 149.381 34.1659C150.162 33.3831 151.386 32.9385 152.957 32.9385C154.614 32.9385 155.925 33.3734 156.879 34.1659C157.747 34.9488 158.19 36.0023 158.19 37.3167L156.012 37.4907C156.012 36.7078 155.665 36.0023 155.135 35.4804C154.614 35.0454 153.824 34.7845 152.783 34.7845C152.003 34.7845 151.386 34.9584 150.952 35.3064C150.432 35.7413 150.258 36.0892 150.258 36.5338C150.258 36.9688 150.432 37.4037 150.779 37.7613C151.039 37.9353 151.742 38.2832 152.783 38.7278C154.614 39.5106 155.752 40.1292 156.185 40.5641C156.879 41.26 157.323 42.1395 157.323 43.0963C157.323 43.7922 157.063 44.4978 156.629 45.1066C156.282 45.7155 155.578 46.2471 154.798 46.682C153.921 47.03 152.966 47.2039 151.742 47.2039C150.171 47.2039 148.861 46.856 147.733 46.0635C146.673 45.2903 146.152 44.0628 146.152 42.3135Z" fill="#6B7280"/>
</svg>
