<svg width="161" height="75" viewBox="0 0 161 75" fill="none" xmlns="http://www.w3.org/2000/svg">
<path d="M21.0111 43.7725V35.219C20.3075 34.3008 19.575 33.286 18.9004 32.2422V43.8885C19.5847 43.8498 20.2883 43.8111 21.0111 43.7725Z" fill="#6B7280"/>
<path d="M3.38323 41.0664C2.87242 41.7043 2.34233 42.3228 1.79297 42.9221V45.348C1.79297 45.6379 1.83152 45.9085 1.89899 46.1695C2.31342 46.0632 2.79532 45.9472 3.38323 45.8119V41.0664Z" fill="#6B7280"/>
<path d="M6.55424 36.6211C5.79284 37.8099 4.96397 39.0083 4.08691 40.1681V45.6675C4.80012 45.5225 5.60971 45.3679 6.55424 45.2036V36.6211Z" fill="#6B7280"/>
<path d="M24.1819 35.78V29.6621C24.1819 27.845 22.717 26.376 20.905 26.376H16.9053C17.5414 27.8354 19.363 31.1601 24.1819 35.78Z" fill="#6B7280"/>
<path d="M21.8496 43.7242C22.611 43.6952 23.382 43.6566 24.182 43.6276V39.0367C23.623 38.4182 22.7845 37.4517 21.8496 36.2822V43.7242Z" fill="#6B7280"/>
<path d="M11.4305 48.6435L11.5462 47.0488C9.95594 47.5127 8.46205 48.0443 7.21875 48.6435H11.4305Z" fill="#6B7280"/>
<path d="M10.9492 26.3662H5.07965C3.26771 26.3662 1.80273 27.8353 1.80273 29.6523V39.1239C3.47974 37.4132 7.1229 33.296 10.9492 26.3662Z" fill="#6B7280"/>
<path d="M7.25781 35.4898V45.087C8.00957 44.9711 8.8288 44.8454 9.72513 44.7294V31.1309C9.04084 32.455 8.21197 33.953 7.25781 35.4898Z" fill="#6B7280"/>
<path d="M18.1875 31.102C17.2333 29.5073 16.4334 27.8739 16.0189 26.3662H15.6045L16.3273 44.0627C16.9249 44.0144 17.5417 43.9661 18.1682 43.9274L18.1875 31.102Z" fill="#6B7280"/>
<path d="M16.4141 45.8601L16.5297 48.6339H20.8957C22.7077 48.6339 24.1726 47.1648 24.1726 45.3478V44.6133C22.8426 44.7776 19.7681 45.1738 16.4141 45.8601Z" fill="#6B7280"/>
<path d="M14.8426 46.1982C14.3993 46.2949 13.9463 46.4012 13.5029 46.5172L13.5608 48.6435H14.8426V46.1982Z" fill="#6B7280"/>
<path d="M12.4528 26.3662H12.0095C11.7685 26.9364 11.2288 28.1542 10.4385 29.7489V44.6523C10.8433 44.604 11.2673 44.5556 11.7107 44.5073L12.4528 26.3662Z" fill="#6B7280"/>
<path d="M15.1032 26.3662H12.9443L13.4359 44.314C13.8985 44.2657 14.3611 44.227 14.8527 44.1787L15.1032 26.3662Z" fill="#6B7280"/>
<path d="M33.4922 45.0585V29.7686H36.5282L40.1424 40.603C40.4701 41.6081 40.7207 42.3716 40.8749 42.8646C41.0484 42.304 41.3182 41.4921 41.6845 40.4193L45.3373 29.7782H48.0552V45.0682H46.1083V32.2621L41.6748 45.0682H39.8533L35.4487 32.0495V45.0682L33.4922 45.0585Z" fill="#6B7280"/>
<path d="M51.3418 45.0585V29.7686H62.3676V31.5759H53.3561V36.2634H61.799V38.0611H53.3561V43.2705H62.7146V45.0778L51.3418 45.0585Z" fill="#6B7280"/>
<path d="M65.5098 45.0585V29.7686H70.7625C71.9479 29.7686 72.8539 29.8459 73.4804 29.9908C74.3574 30.1938 75.0996 30.5611 75.7164 31.0927C76.5163 31.7692 77.1235 32.639 77.5187 33.7119C77.9138 34.775 78.1162 35.9831 78.1162 37.3459C78.1162 38.5057 77.9813 39.5398 77.7114 40.4387C77.4416 41.3375 77.0946 42.072 76.6705 42.6713C76.2465 43.2608 75.7838 43.7247 75.2827 44.0534C74.7815 44.3916 74.1743 44.6429 73.4611 44.8169C72.7479 44.9908 71.9383 45.0778 71.013 45.0778L65.5098 45.0585ZM67.5241 43.2608H70.7817C71.7841 43.2608 72.5744 43.1642 73.1527 42.9805C73.7213 42.7969 74.1839 42.5263 74.5213 42.188C75.0032 41.7048 75.3694 41.0669 75.6393 40.255C75.9091 39.4432 76.0344 38.467 76.0344 37.3072C76.0344 35.7125 75.7742 34.4754 75.2538 33.6152C74.7333 32.755 74.0876 32.1848 73.3454 31.8948C72.8057 31.6919 71.9287 31.5856 70.7335 31.5856H67.5241C67.5241 31.5759 67.5241 43.2608 67.5241 43.2608Z" fill="#6B7280"/>
<path d="M80.8145 45.0585V29.7686H86.5394C87.7056 29.7686 88.6405 29.9232 89.3441 30.2325C90.0476 30.5418 90.597 31.0153 91.0018 31.6629C91.397 32.3104 91.5994 32.9773 91.5994 33.6829C91.5994 34.3401 91.4162 34.9586 91.0693 35.5289C90.7127 36.1088 90.1826 36.5727 89.4694 36.9303C90.3946 37.2009 91.0982 37.6648 91.5897 38.3124C92.0909 38.9696 92.3318 39.7331 92.3318 40.632C92.3318 41.3472 92.1776 42.014 91.8789 42.6326C91.5801 43.2415 91.2042 43.7247 90.7608 44.0534C90.3175 44.382 89.7585 44.6429 89.0838 44.8169C88.4092 44.9908 87.5996 45.0682 86.6165 45.0682L80.8145 45.0585ZM82.8384 36.1957H86.1346C87.031 36.1957 87.6671 36.1378 88.0622 36.0121C88.573 35.8575 88.9682 35.6062 89.2284 35.2486C89.4886 34.891 89.6236 34.4464 89.6236 33.9148C89.6236 33.4122 89.5079 32.958 89.2573 32.5811C89.0164 32.1945 88.6694 31.9238 88.2164 31.7885C87.7634 31.6532 86.9924 31.5759 85.9033 31.5759H82.8577L82.8384 36.1957ZM82.8384 43.2608H86.6358C87.2912 43.2608 87.7442 43.2318 88.014 43.1835C88.4766 43.0965 88.8718 42.9612 89.1802 42.7679C89.4886 42.5746 89.7489 42.2847 89.9513 41.9174C90.1537 41.5405 90.25 41.1152 90.25 40.6223C90.25 40.0521 90.1055 39.5592 89.8163 39.1339C89.5272 38.7183 89.1224 38.4187 88.6019 38.2447C88.0815 38.0707 87.3394 37.9934 86.3756 37.9934H82.8481L82.8384 43.2608Z" fill="#6B7280"/>
<path d="M95.1367 45.0585V29.7686H101.903C103.262 29.7686 104.293 29.9039 105.006 30.1841C105.719 30.4548 106.278 30.9477 106.702 31.6436C107.126 32.3394 107.338 33.1126 107.338 33.9438C107.338 35.0263 106.982 35.9445 106.288 36.6887C105.584 37.4329 104.505 37.9064 103.04 38.1094C103.57 38.3704 103.984 38.6216 104.254 38.8729C104.842 39.4142 105.401 40.0907 105.931 40.9122L108.591 45.0778H106.057L104.042 41.8981C103.454 40.9799 102.963 40.284 102.587 39.7911C102.211 39.3079 101.864 38.9696 101.565 38.7666C101.266 38.5733 100.958 38.438 100.64 38.3607C100.418 38.3124 100.033 38.2834 99.522 38.2834H97.18V45.0778L95.1367 45.0585ZM97.1607 36.5147H101.498C102.423 36.5147 103.146 36.418 103.666 36.2247C104.187 36.0314 104.582 35.7222 104.852 35.3066C105.122 34.891 105.257 34.4271 105.257 33.9341C105.257 33.2093 104.996 32.6197 104.476 32.1461C103.955 31.6822 103.127 31.4503 101.989 31.4503H97.1607V36.5147Z" fill="#6B7280"/>
<path d="M110.837 45.0585V29.7686H112.851V45.0585H110.837Z" fill="#6B7280"/>
<path d="M116.417 45.0585V29.7686H121.67C122.855 29.7686 123.761 29.8459 124.388 29.9908C125.265 30.1938 126.007 30.5611 126.624 31.0927C127.424 31.7692 128.031 32.639 128.426 33.7119C128.821 34.775 129.023 35.9831 129.023 37.3459C129.023 38.5057 128.889 39.5398 128.619 40.4387C128.349 41.3375 128.002 42.072 127.578 42.6713C127.154 43.2608 126.691 43.7247 126.19 44.0534C125.689 44.3916 125.082 44.6429 124.368 44.8169C123.655 44.9908 122.846 45.0778 121.92 45.0778L116.417 45.0585ZM118.431 43.2608H121.689C122.691 43.2608 123.482 43.1642 124.06 42.9805C124.629 42.7969 125.091 42.5263 125.428 42.188C125.91 41.7048 126.277 41.0669 126.547 40.255C126.816 39.4432 126.942 38.467 126.942 37.3072C126.942 35.7125 126.681 34.4754 126.161 33.6152C125.641 32.755 124.995 32.1848 124.253 31.8948C123.713 31.6919 122.836 31.5856 121.641 31.5856H118.431V43.2608Z" fill="#6B7280"/>
<path d="M138.942 39.0663V37.2687L145.399 37.259V42.9323C144.406 43.7248 143.385 44.3241 142.334 44.7203C141.274 45.1166 140.195 45.3196 139.086 45.3196C137.583 45.3196 136.224 45.0006 135 44.3531C133.776 43.7055 132.85 42.7777 132.224 41.5599C131.597 40.3421 131.289 38.9794 131.289 37.4813C131.289 35.9832 131.597 34.6011 132.214 33.3157C132.831 32.0303 133.727 31.0638 134.894 30.4355C136.06 29.8073 137.4 29.498 138.913 29.498C140.011 29.498 141.014 29.6817 141.91 30.0393C142.806 30.3969 143.5 30.8995 144.011 31.5374C144.512 32.1752 144.898 33.0064 145.168 34.0406L143.346 34.5432C143.124 33.7603 142.835 33.1514 142.488 32.7068C142.151 32.2622 141.669 31.9046 141.033 31.634C140.407 31.3634 139.703 31.2377 138.932 31.2377C138.007 31.2377 137.216 31.373 136.542 31.6533C135.867 31.9336 135.327 32.3105 134.913 32.7648C134.499 33.2287 134.18 33.7313 133.949 34.2725C133.554 35.2197 133.361 36.2442 133.361 37.346C133.361 38.7087 133.593 39.8492 134.065 40.7674C134.537 41.6855 135.212 42.3621 136.108 42.8067C137.004 43.2513 137.949 43.4736 138.961 43.4736C139.838 43.4736 140.686 43.3093 141.515 42.971C142.344 42.6327 142.98 42.2751 143.404 41.8885V39.047H138.922V39.0663H138.942Z" fill="#6B7280"/>
<path d="M148.425 45.0585V29.7686H159.451V31.5759H150.439V36.2634H158.882V38.0611H150.439V43.2705H159.798V45.0778L148.425 45.0585Z" fill="#6B7280"/>
</svg>
